<svg width="15" height="16" viewBox="0 0 15 16" fill="none" xmlns="http://www.w3.org/2000/svg">
<path d="M13.3235 6.38891H9.41919V2.5278C9.41919 2.1005 9.24755 1.69071 8.94203 1.38857C8.6365 1.08643 8.22212 0.916687 7.79005 0.916687C7.35797 0.916687 6.94359 1.08643 6.63807 1.38857C6.33255 1.69071 6.16091 2.1005 6.16091 2.5278V6.38891H2.25658C1.82451 6.38891 1.41013 6.55865 1.10461 6.86079C0.799083 7.16294 0.627441 7.57273 0.627441 8.00002C0.627441 8.42731 0.799083 8.83711 1.10461 9.13925C1.41013 9.44139 1.82451 9.61113 2.25658 9.61113H6.16091V13.4722C6.16091 13.8995 6.33255 14.3093 6.63807 14.6115C6.94359 14.9136 7.35797 15.0834 7.79005 15.0834C8.22212 15.0834 8.6365 14.9136 8.94203 14.6115C9.24755 14.3093 9.41919 13.8995 9.41919 13.4722V9.61113H13.3235C13.7556 9.61113 14.17 9.44139 14.4755 9.13925C14.781 8.83711 14.9527 8.42731 14.9527 8.00002C14.9527 7.57273 14.781 7.16294 14.4755 6.86079C14.17 6.55865 13.7556 6.38891 13.3235 6.38891Z" fill="white"/>
</svg>
