<svg width="18" height="14" viewBox="0 0 18 14" fill="none" xmlns="http://www.w3.org/2000/svg">
<path d="M11.3911 8.15C11.5486 7.99736 11.6739 7.81535 11.7599 7.61451C11.8458 7.41366 11.8906 7.19796 11.8917 6.97988C11.8928 6.7618 11.8502 6.54566 11.7664 6.34397C11.6825 6.14228 11.559 5.95903 11.4031 5.80482C11.2471 5.65061 11.0618 5.52851 10.8579 5.44556C10.6539 5.36261 10.4354 5.32047 10.2149 5.32157C9.99433 5.32267 9.77622 5.36699 9.57313 5.45197C9.37004 5.53696 9.18599 5.66091 9.03164 5.81667C8.72396 6.12715 8.55262 6.54517 8.55484 6.97988C8.55706 7.4146 8.73267 7.83088 9.0435 8.13828C9.35433 8.44567 9.77528 8.61933 10.2149 8.62153C10.6544 8.62372 11.0771 8.45427 11.3911 8.15ZM4.50263 8.15C4.66013 7.99736 4.78547 7.81535 4.8714 7.61451C4.95733 7.41366 5.00215 7.19796 5.00327 6.97988C5.00438 6.7618 4.96177 6.54566 4.87789 6.34397C4.79401 6.14228 4.67054 5.95903 4.5146 5.80482C4.35867 5.65061 4.17337 5.52851 3.96942 5.44556C3.76547 5.36261 3.54692 5.32047 3.32639 5.32157C3.10587 5.32267 2.88776 5.36699 2.68467 5.45197C2.48157 5.53696 2.29753 5.66091 2.14318 5.81667C1.8355 6.12715 1.66416 6.54517 1.66638 6.97988C1.6686 7.4146 1.8442 7.83088 2.15504 8.13828C2.46587 8.44567 2.88681 8.61933 3.32639 8.62153C3.76597 8.62372 4.18867 8.45427 4.50263 8.15ZM7.97045 2.42222C7.81628 2.26603 7.6323 2.14165 7.42917 2.0563C7.22603 1.97094 7.00779 1.92631 6.78708 1.92498C6.56637 1.92364 6.3476 1.96565 6.14343 2.04855C5.93925 2.13145 5.75375 2.2536 5.59767 2.40792C5.44158 2.56224 5.31802 2.74566 5.23414 2.94755C5.15027 3.14944 5.10774 3.36579 5.10904 3.58405C5.11033 3.80232 5.15541 4.01816 5.24168 4.21906C5.32794 4.41997 5.45367 4.60194 5.61157 4.75444C5.92557 5.05771 6.34779 5.22635 6.78668 5.2238C7.22558 5.22126 7.64577 5.04774 7.95616 4.74086C8.26655 4.43398 8.44211 4.01848 8.44479 3.58444C8.44746 3.15041 8.27703 2.73282 7.97045 2.42222ZM7.97045 9.23444C7.81628 9.07825 7.6323 8.95388 7.42917 8.86852C7.22603 8.78316 7.00779 8.73853 6.78708 8.7372C6.56637 8.73587 6.3476 8.77787 6.14343 8.86077C5.93925 8.94367 5.75375 9.06582 5.59767 9.22014C5.44158 9.37446 5.31802 9.55788 5.23414 9.75977C5.15027 9.96166 5.10774 10.178 5.10904 10.3963C5.11033 10.6145 5.15541 10.8304 5.24168 11.0313C5.32794 11.2322 5.45367 11.4142 5.61157 11.5667C5.92557 11.8699 6.34779 12.0386 6.78668 12.036C7.22558 12.0335 7.64577 11.86 7.95616 11.5531C8.26655 11.2462 8.44211 10.8307 8.44479 10.3967C8.44746 9.96263 8.27703 9.54504 7.97045 9.23444ZM7.10308 6.66278C7.05896 6.61911 7.00658 6.58447 6.94892 6.56082C6.89127 6.53718 6.82947 6.525 6.76705 6.52497C6.70464 6.52495 6.64283 6.53708 6.58515 6.56067C6.52748 6.58427 6.47507 6.61887 6.43091 6.6625C6.38676 6.70613 6.35173 6.75793 6.32782 6.81495C6.30391 6.87196 6.29159 6.93308 6.29156 6.9948C6.29154 7.05653 6.30381 7.11765 6.32767 7.17469C6.35153 7.23173 6.38652 7.28356 6.43063 7.32722C6.51973 7.41541 6.6406 7.46498 6.76665 7.46503C6.89271 7.46508 7.01362 7.41561 7.10279 7.3275C7.19197 7.23939 7.24209 7.11986 7.24214 6.9952C7.2422 6.87054 7.19217 6.75096 7.10308 6.66278ZM17.2487 6.305C15.378 10.1456 12.6618 11.8206 10.7125 12.5494C9.26871 13.0889 8.0373 13.2039 7.37048 13.2206C7.17498 13.2383 6.97836 13.25 6.77949 13.25C3.28864 13.25 0.458984 10.4517 0.458984 7C0.458984 3.54833 3.28864 0.75 6.77893 0.75C10.2698 0.75 13.0989 3.54833 13.0989 7C13.1005 8.42651 12.606 9.81019 11.6984 10.9189C13.2893 10.0233 14.9814 8.48445 16.2701 5.83944C16.3372 5.71898 16.4483 5.6285 16.5808 5.5866C16.7132 5.54471 16.8569 5.55458 16.9822 5.6142C17.1075 5.67381 17.205 5.77864 17.2545 5.90712C17.3041 6.03561 17.302 6.17799 17.2487 6.305Z" fill="white"/>
</svg>
