<svg width="15" height="14" viewBox="0 0 15 14" fill="none" xmlns="http://www.w3.org/2000/svg">
<path d="M9.85376 10.5205C7.64431 12.055 4.57422 11.8461 2.59903 9.89276C0.387889 7.70609 0.387889 4.16054 2.59903 1.97331C4.81073 -0.213354 8.39653 -0.213354 10.6077 1.97331C12.4767 3.82165 12.766 6.64109 11.4756 8.78998L14.0373 11.3222C14.1417 11.4254 14.2245 11.5479 14.281 11.6827C14.3375 11.8176 14.3665 11.9621 14.3665 12.108C14.3665 12.254 14.3375 12.3985 14.281 12.5333C14.2245 12.6682 14.1417 12.7907 14.0373 12.8939L13.9395 12.99C13.7288 13.1983 13.4431 13.3153 13.1452 13.3153C12.8473 13.3153 12.5615 13.1983 12.3508 12.99L9.85376 10.5205ZM6.60335 9.76498C7.63094 9.76498 8.61645 9.36129 9.34307 8.64271C10.0697 7.92413 10.4779 6.94953 10.4779 5.93331C10.4779 4.91709 10.0697 3.94249 9.34307 3.22392C8.61645 2.50534 7.63094 2.10165 6.60335 2.10165C5.57575 2.10165 4.59025 2.50534 3.86363 3.22392C3.13701 3.94249 2.7288 4.91709 2.7288 5.93331C2.7288 6.94953 3.13701 7.92413 3.86363 8.64271C4.59025 9.36129 5.57575 9.76498 6.60335 9.76498Z" fill="white"/>
</svg>
