<svg width="14" height="14" viewBox="0 0 14 14" fill="none" xmlns="http://www.w3.org/2000/svg">
<path d="M7.20172 3.64723H10.978C11.5739 3.64723 12.1455 3.88135 12.5669 4.2981C12.9883 4.71485 13.2251 5.28008 13.2251 5.86945V11.4444C13.2251 12.0338 12.9883 12.5991 12.5669 13.0158C12.1455 13.4325 11.5739 13.6667 10.978 13.6667H2.44631C1.85035 13.6667 1.27879 13.4325 0.857377 13.0158C0.435965 12.5991 0.199219 12.0338 0.199219 11.4444V5.86945C0.199219 5.28008 0.435965 4.71485 0.857377 4.2981C1.27879 3.88135 1.85035 3.64723 2.44631 3.64723H5.93548L3.69906 1.43556C3.63842 1.37563 3.59031 1.30447 3.55748 1.22615C3.52465 1.14782 3.50773 1.06387 3.50771 0.979089C3.50768 0.894304 3.52454 0.810345 3.55733 0.732004C3.59011 0.653663 3.63818 0.582474 3.69878 0.522504C3.75939 0.462534 3.83134 0.414956 3.91054 0.382486C3.98974 0.350016 4.07463 0.333291 4.16036 0.333265C4.2461 0.333239 4.331 0.349914 4.41021 0.382336C4.48943 0.414758 4.56142 0.462293 4.62206 0.522226L6.5686 2.44723L8.51458 0.522226C8.63706 0.401111 8.80316 0.333069 8.97636 0.333069C9.14956 0.333069 9.31567 0.401111 9.43814 0.522226C9.56061 0.643342 9.62941 0.80761 9.62941 0.978893C9.62941 1.15018 9.56061 1.31444 9.43814 1.43556L7.20116 3.64723H7.20172ZM10.8128 7.94167C11.0688 7.94167 11.3142 7.84111 11.4952 7.66212C11.6762 7.48313 11.7779 7.24036 11.7779 6.98723C11.7779 6.73409 11.6762 6.49133 11.4952 6.31233C11.3142 6.13334 11.0688 6.03278 10.8128 6.03278C10.5568 6.03278 10.3113 6.13334 10.1304 6.31233C9.94935 6.49133 9.84767 6.73409 9.84767 6.98723C9.84767 7.24036 9.94935 7.48313 10.1304 7.66212C10.3113 7.84111 10.5568 7.94167 10.8128 7.94167ZM10.8128 11.2811C10.9415 11.2842 11.0694 11.2618 11.1892 11.2152C11.309 11.1686 11.4181 11.0988 11.5102 11.0099C11.6023 10.921 11.6755 10.8148 11.7255 10.6975C11.7755 10.5802 11.8012 10.4542 11.8012 10.3269C11.8012 10.1997 11.7755 10.0737 11.7255 9.95639C11.6755 9.83909 11.6023 9.73287 11.5102 9.64396C11.4181 9.55506 11.309 9.48526 11.1892 9.43869C11.0694 9.39212 10.9415 9.36971 10.8128 9.37278C10.5609 9.37879 10.3214 9.48196 10.1455 9.66025C9.96947 9.83853 9.87096 10.0778 9.87096 10.3269C9.87096 10.5761 9.96947 10.8154 10.1455 10.9937C10.3214 11.1719 10.5609 11.2751 10.8128 11.2811Z" fill="white"/>
</svg>
