<svg width="570" height="133" viewBox="0 0 570 133" fill="none" xmlns="http://www.w3.org/2000/svg">
<g clip-path="url(#clip0_10_573)">
<path fill-rule="evenodd" clip-rule="evenodd" d="M383.779 88.0815V91.1587C383.779 91.4764 383.653 91.7811 383.428 92.0057C383.204 92.2303 382.899 92.3565 382.581 92.3565H367.98C367.98 93.1207 367.98 93.7815 367.98 94.4217C368.003 98.5604 367.796 102.697 367.361 106.813C367.33 107.111 367.191 107.387 366.97 107.589C366.75 107.791 366.462 107.904 366.163 107.908H363.003C362.854 107.905 362.707 107.873 362.57 107.813C362.433 107.754 362.309 107.668 362.206 107.56C362.102 107.453 362.021 107.326 361.966 107.187C361.912 107.049 361.885 106.9 361.888 106.751C362.338 102.698 362.552 98.6231 362.528 94.5457C362.528 93.9054 362.528 93.2239 362.528 92.4804H348.072C347.754 92.4804 347.449 92.3542 347.225 92.1296C347 91.905 346.874 91.6003 346.874 91.2826V88.0815C346.871 87.9252 346.899 87.7699 346.957 87.6247C347.015 87.4795 347.102 87.3473 347.211 87.2358C347.321 87.1243 347.451 87.0357 347.596 86.9752C347.74 86.9148 347.895 86.8837 348.051 86.8837H362.301C362.009 81.951 361.374 77.0446 360.401 72.2C360.352 71.9402 360.407 71.6715 360.553 71.4515C360.7 71.2315 360.927 71.0776 361.186 71.0228H364.82C365.078 71.0239 365.326 71.1156 365.523 71.2818C365.719 71.448 365.851 71.678 365.894 71.9315C366.845 76.8758 367.466 81.8777 367.753 86.9044H382.561C382.718 86.9016 382.874 86.9299 383.021 86.9876C383.167 87.0453 383.301 87.1312 383.414 87.2405C383.527 87.3498 383.617 87.4804 383.68 87.6247C383.743 87.769 383.776 87.9242 383.779 88.0815Z" fill="white"/>
<path d="M363.912 63.7739C356.921 46.6242 345.392 31.7022 330.561 20.6101C315.731 9.51803 298.159 2.67471 279.733 0.814908C261.307 -1.0449 242.723 2.14905 225.975 10.0538C209.227 17.9586 194.948 30.2757 184.672 45.6826C184.568 45.8352 184.501 46.0097 184.476 46.1924C184.451 46.375 184.468 46.5611 184.527 46.7359C184.586 46.9106 184.684 47.0698 184.812 47.202C184.941 47.3342 185.097 47.436 185.27 47.5L187.935 48.3881C188.241 48.4886 188.573 48.4865 188.878 48.3822C189.184 48.2779 189.447 48.077 189.628 47.8098C199.384 33.4489 212.832 21.9837 228.555 14.6211C244.277 7.25845 261.695 4.27068 278.972 5.97226C296.25 7.67383 312.75 14.0018 326.734 24.2901C340.719 34.5785 351.672 48.4466 358.439 64.4348C358.544 64.6889 358.721 64.9065 358.949 65.0607C359.177 65.2148 359.444 65.2988 359.719 65.3022H362.879C363.175 65.3022 363.459 65.1847 363.668 64.9756C363.877 64.7664 363.994 64.4828 363.994 64.187C364.014 64.05 364.014 63.9109 363.994 63.7739H363.912ZM188.368 47.6446C188.294 47.6638 188.216 47.6638 188.141 47.6446H188.348H188.368Z" fill="url(#paint0_radial_10_573)"/>
<path d="M223.209 68.3174C223.209 68.3174 223.973 67.1815 224.613 66.2522C226.056 64.3935 227.674 62.6783 229.446 61.1304L230.499 60.263C230.499 60.263 229.611 60.263 229.115 60.4489C227.706 60.8651 226.398 61.5683 225.274 62.5141C223.828 63.7533 222.238 65.7772 222.961 67.5739L223.209 68.1728V68.3174ZM231.263 70.4859C233.525 70.3193 235.723 69.664 237.707 68.5652C239.772 67.4707 242.56 65.3228 242.25 62.8239C242.212 62.4462 242.07 62.0864 241.84 61.784C241.611 61.4816 241.302 61.2483 240.949 61.1098C240.565 60.9402 240.15 60.8526 239.731 60.8526C239.311 60.8526 238.896 60.9402 238.512 61.1098C237.829 61.2901 237.175 61.5684 236.571 61.9359C233.854 63.6389 231.434 65.7734 229.404 68.2554C229.012 68.7717 228.599 69.3707 228.289 69.763C227.979 70.1554 227.938 70.238 227.959 70.3C229.044 70.536 230.16 70.5918 231.263 70.4652V70.4859ZM225.439 74.7402C225.167 75.1595 224.919 75.5939 224.696 76.0413C224.55 76.2867 224.361 76.5037 224.138 76.6815C223.914 76.906 223.609 77.0321 223.291 77.0321C222.974 77.0321 222.669 76.906 222.445 76.6815C222.048 76.309 221.729 75.8619 221.506 75.3657C221.282 74.8695 221.159 74.3341 221.144 73.7902C221.185 73.3299 221.185 72.8668 221.144 72.4065C220.848 71.6671 220.452 70.9721 219.966 70.3413C219.514 69.4311 219.241 68.4426 219.161 67.4294C219.171 66.1194 219.447 64.8252 219.972 63.6252C220.498 62.4252 221.262 61.3446 222.217 60.4489C224.129 58.4529 226.437 56.8774 228.991 55.8228C231.715 54.5787 234.78 54.2948 237.686 55.0174C238.73 55.388 239.662 56.021 240.391 56.8554C240.498 57.0076 240.623 57.1462 240.763 57.2685C240.983 57.3461 241.212 57.3947 241.445 57.413C242.391 57.6334 243.279 58.0561 244.047 58.6522C244.976 59.379 245.62 60.41 245.864 61.5641C246.002 62.8035 245.847 64.0579 245.414 65.2269C244.98 66.396 244.278 67.4473 243.365 68.2967C240.89 71.0005 237.842 73.1172 234.444 74.4924C232.636 75.203 230.706 75.547 228.764 75.5044C228.227 75.5044 227.67 75.3185 227.133 75.2772C226.669 75.1991 226.213 75.0817 225.77 74.9261C225.646 74.8228 225.501 74.7402 225.439 74.7815V74.7402ZM228.558 80.1511C228.701 80.1702 228.841 80.212 228.971 80.275C229.529 80.5347 230.012 80.9328 230.374 81.4316C230.735 81.9304 230.963 82.5133 231.036 83.125C231.673 87.0535 232.039 91.0212 232.131 95C232.131 96.8793 232.254 98.7174 232.337 100.576C232.487 102.29 232.438 104.016 232.192 105.718C232.067 106.313 231.72 106.837 231.222 107.185C230.385 107.529 229.465 107.615 228.578 107.433C226.782 107.061 226.203 105.904 225.935 104.128C225.458 98.7831 225.458 93.4061 225.935 88.0609C226.147 85.8657 226.562 83.6949 227.174 81.5761C227.381 81.0391 227.814 79.9859 228.599 80.1511H228.558ZM173.189 86.512C173.189 86.512 170.546 86.6978 168.708 86.9044C165.578 87.2474 162.487 87.8835 159.476 88.8043C158.733 89.0935 157.184 89.713 157.039 90.4978C157.036 90.8888 157.117 91.2758 157.277 91.6324C157.438 91.9889 157.674 92.3064 157.969 92.563C158.299 92.9554 160.034 94.6283 160.633 95.1446C163.608 97.4966 166.861 99.4735 170.319 101.03C171.413 101.485 173.231 102.125 173.231 102.125C173.231 102.125 173.107 96.962 173.231 91.7989C173.231 89.0935 173.231 86.4293 173.231 86.4293L173.189 86.512ZM221.97 88.5772C222.019 90.0418 221.929 91.5078 221.701 92.9554C221.498 93.925 221.222 94.8777 220.875 95.8054C220.436 96.8207 219.947 97.8132 219.409 98.7794C218.265 100.662 216.876 102.384 215.278 103.901C210.12 107.812 203.98 110.221 197.538 110.861C193.13 111.382 188.669 111.249 184.3 110.468L180.562 109.684C180.589 110.193 180.589 110.703 180.562 111.212C180.489 111.652 180.364 112.082 180.19 112.492C180.04 112.798 179.816 113.062 179.538 113.26C179.261 113.459 178.938 113.585 178.6 113.628C177.667 113.899 176.675 113.884 175.75 113.587C175.135 113.258 174.618 112.771 174.255 112.175C173.892 111.58 173.695 110.898 173.685 110.2C173.478 109.002 173.272 106.916 173.272 106.916L171.413 105.904C168.814 104.617 166.333 103.104 163.999 101.382C162.698 100.349 161.417 99.3163 160.178 98.1598C158.548 96.6973 157.154 94.9903 156.048 93.1C155.607 92.4374 155.335 91.6768 155.256 90.8848C155.177 90.0927 155.293 89.2934 155.594 88.5565C156.502 86.2848 159.724 84.5707 162.016 83.6C164.885 82.4416 167.85 81.5363 170.876 80.8946C171.867 80.75 173.416 80.4815 173.52 80.4196C173.52 80.4196 173.644 78.0859 173.52 77.2804C173.396 76.475 174.119 71.0848 174.325 70.0109C174.499 68.7771 174.846 67.5742 175.358 66.438C175.52 66.2579 175.746 66.1468 175.988 66.1276C176.23 66.1084 176.47 66.1825 176.659 66.3348C179.075 67.8424 179.819 73.088 180.004 75.7522C180.004 77.363 180.17 79.8826 180.17 79.8826C180.17 79.8826 182.958 79.8826 184.672 79.8826C186.423 79.9641 188.168 80.1503 189.897 80.4402C193.004 80.9093 196.037 81.7769 198.922 83.0217C200.95 83.9545 202.571 85.5907 203.486 87.6272C203.778 88.3346 203.895 89.1021 203.827 89.8644C203.758 90.6267 203.507 91.3613 203.094 92.0054C202.598 92.8381 201.913 93.5428 201.095 94.0629C200.278 94.5829 199.349 94.9039 198.385 95C197.233 94.997 196.097 94.7359 195.06 94.2359C195.006 94.1838 194.962 94.1213 194.933 94.0521C194.903 93.9829 194.888 93.9084 194.888 93.8332C194.888 93.7579 194.903 93.6834 194.933 93.6142C194.962 93.545 195.006 93.4825 195.06 93.4304C195.06 93.4304 196.113 92.8315 196.691 92.5217C196.97 92.3789 197.227 92.1982 197.456 91.9848C197.951 91.5511 198.385 91.0761 198.344 90.5391C198.302 90.0022 197.517 89.4033 196.795 89.1141C192.449 87.6945 187.949 86.8001 183.391 86.45L180.294 86.3261L180.686 104.335L183.371 104.81C184.032 104.913 186.923 105.161 187.687 105.182C193.716 105.576 199.756 104.587 205.345 102.29C207.687 101.288 209.796 99.8109 211.54 97.9533C212.634 96.6748 213.461 95.1901 213.972 93.5868C214.483 91.9835 214.667 90.2942 214.514 88.6185C213.769 84.5086 211.977 80.6605 209.31 77.4457C203.61 70.1141 193.821 64.063 185.229 60.5315C176.716 56.9225 167.621 54.8796 158.382 54.5011C154.922 54.3615 151.457 54.6179 148.056 55.2652L146.94 55.575C146.649 55.6489 146.37 55.7674 146.114 55.9261L145.99 56.05C146.087 56.1168 146.191 56.1722 146.3 56.2152C146.589 56.3391 147.766 56.4011 148.365 56.525C148.898 56.6017 149.38 56.8833 149.708 57.3098C149.822 57.4498 149.884 57.6249 149.884 57.8054C149.884 57.986 149.822 58.1611 149.708 58.3011C149.088 59.0446 146.858 58.9207 145.846 58.7554C144.834 58.5902 143.533 58.2804 143.285 57.3717C143.126 56.292 143.4 55.1931 144.049 54.3152C144.578 53.4072 145.293 52.6214 146.147 52.0092C147.002 51.397 147.976 50.9724 149.006 50.763C152.423 49.8584 155.925 49.3117 159.456 49.1315C166.312 48.9613 173.148 49.9528 179.674 52.0641C183.991 53.4021 188.208 55.0446 192.292 56.9793C195.453 58.5267 198.528 60.2433 201.503 62.1217C202.247 62.5967 206.584 65.7772 207.265 66.3554C208.67 67.4913 210.508 69.1435 211.829 70.4859C214.703 73.319 217.171 76.537 219.161 80.0478C219.533 80.7913 219.822 81.5141 220.297 82.3815C220.688 83.2105 221.019 84.0663 221.288 84.9424C221.412 85.4587 221.577 86.2022 221.598 86.2228C221.79 87.0016 221.907 87.7968 221.949 88.5978L221.97 88.5772ZM251.957 89.8783H252.246C254.239 90.0834 256.197 90.5486 258.07 91.262C259.448 91.8311 260.566 92.8906 261.209 94.2359C261.771 95.2684 262.111 96.4074 262.205 97.5793C262.3 98.7512 262.148 99.9299 261.759 101.039C261.369 102.149 260.752 103.164 259.946 104.02C259.139 104.876 258.163 105.553 257.078 106.008C255.462 106.756 253.73 107.224 251.957 107.391C248.532 107.719 245.083 107.105 241.982 105.615C239.916 104.691 238.16 103.193 236.922 101.299C236.499 100.6 236.293 99.7913 236.33 98.9752C236.366 98.1591 236.644 97.3723 237.128 96.7141C238.677 94.6489 242.044 94.0913 244.563 94.1739C247.016 94.3323 249.441 94.7758 251.791 95.4957C252.738 95.8108 253.646 96.2334 254.497 96.7554C254.621 96.8587 254.714 96.9947 254.765 97.1479C254.816 97.3012 254.823 97.4657 254.786 97.6228C254.373 98.9033 251.254 99.5848 250.366 99.688C247.971 100.06 246.711 99.1511 243.985 98.0772C243.252 97.7701 242.481 97.5618 241.692 97.4576C240.453 97.3337 238.966 97.6848 238.719 99.0272C238.719 99.7294 239.421 100.39 240.04 100.659C241.338 101.245 242.747 101.541 244.171 101.526C248.57 101.819 252.95 100.736 256.707 98.4283C256.971 98.2777 257.195 98.0659 257.36 97.8108C257.525 97.5556 257.627 97.2645 257.657 96.962C257.657 96.962 257.657 96.2185 257.326 96.1359C257.326 96.1359 257.12 95.888 256.996 95.7641C256.554 95.4128 256.059 95.134 255.529 94.938C252.645 94.0093 249.654 93.454 246.628 93.2859C244.274 93.0793 240.577 92.7902 239.71 92.6457C238.782 92.5506 237.872 92.3282 237.004 91.9848C236.573 91.7879 236.188 91.5022 235.875 91.1463C235.562 90.7904 235.327 90.3724 235.187 89.9196C234.868 88.2316 235.232 86.4862 236.199 85.0663C238.533 81.7206 243.985 80.4609 248.053 79.9446C252.122 79.4283 258.379 79.4489 262.241 81.5141C262.84 81.8239 263.15 82.1337 263.026 82.7739C262.894 83.3262 262.614 83.8325 262.218 84.2395C261.822 84.6466 261.324 84.9393 260.775 85.087C259.273 85.4088 257.746 85.5954 256.211 85.6446C251.257 85.6105 246.311 86.0601 241.445 86.987C241.04 87.0741 240.655 87.2351 240.309 87.462C239.607 88.2261 241.61 88.4326 242.023 88.5359H242.312L252.142 89.6924L251.957 89.8783ZM266.516 107.391C264.637 106.71 264.203 103.674 264.121 102.125C264.035 96.4537 264.951 90.8118 266.826 85.4587C267.301 84.1163 268.003 81.9272 269.49 82.0511C269.985 82.1451 270.453 82.3476 270.86 82.644C271.267 82.9404 271.603 83.3233 271.845 83.7652C273.435 86.0163 275.004 88.3087 276.553 90.6217C278.102 92.9348 279.362 95.0413 280.684 97.0446C280.821 97.284 280.995 97.5001 281.2 97.6848C281.448 97.8913 281.675 97.8913 281.758 97.6848C281.813 96.646 281.813 95.6051 281.758 94.5663C281.654 93.7609 281.613 93.1207 281.51 92.5011C281.174 90.2125 280.712 87.9442 280.126 85.7065C279.548 83.6413 278.866 81.3076 278.371 79.2217C278.182 78.5488 278.078 77.8551 278.061 77.1565C278.025 76.9583 278.047 76.7541 278.124 76.568C278.201 76.3819 278.33 76.2217 278.495 76.1066C278.66 75.9914 278.855 75.9259 279.056 75.918C279.258 75.9101 279.457 75.9601 279.631 76.062C281.551 76.7435 284.091 80.9152 284.835 82.2576C285.083 82.7326 286.074 85.2109 286.322 85.913C287.107 88.2607 287.607 90.6946 287.809 93.162C288.103 96.094 287.75 99.0548 286.776 101.836C286.321 102.864 285.684 103.801 284.897 104.603C284.301 105.18 283.553 105.574 282.74 105.739C281.928 105.904 281.085 105.832 280.312 105.533C278.452 103.73 276.897 101.638 275.707 99.337C274.199 96.7141 271.576 91.5717 271.225 91.0761C271.121 90.9342 270.977 90.8264 270.812 90.7663C270.668 90.7663 270.606 91.0348 270.564 91.2413C270.296 92.7489 270.131 99.7293 270.131 99.9359C270.123 101.769 269.971 103.599 269.676 105.409C269.47 106.338 269.242 107.102 268.375 107.474C268.086 107.59 267.774 107.64 267.463 107.618C267.151 107.597 266.849 107.505 266.578 107.35L266.516 107.391ZM292.497 106.483C292.227 106.251 291.972 106.003 291.733 105.739C291.424 105.295 291.141 104.833 290.886 104.355C290.762 104.087 290.679 103.901 290.597 103.674C290.032 102.111 289.939 100.416 290.328 98.8C290.689 97.4732 291.166 96.1809 291.753 94.938C291.774 94.822 291.774 94.7031 291.753 94.587C291.753 94.2772 291.299 92.2739 291.278 91.613C291.278 90.6217 292.001 89.9196 293.344 89.7957H293.612C294.128 89.6717 294.479 88.6804 294.748 87.8957L295.739 85.1076C294.892 84.9011 294.066 84.6739 293.24 84.4054C292.355 84.1134 291.616 83.4924 291.175 82.6707C290.659 81.6174 291.01 81.0391 292.104 80.7087C292.497 80.5641 295.657 79.9652 296.648 79.8207L300.262 79.3457C301.295 79.2217 306.003 78.6641 307.511 78.7054C308.548 78.7064 309.568 78.9796 310.466 79.4979C311.365 80.0161 312.112 80.7612 312.633 81.6587C313.356 82.6913 313.851 83.9304 312.757 84.5913C311.084 85.6033 305.673 85.6859 304.682 85.6859H300.902L299.808 89.3826H305.859C306.309 89.3751 306.758 89.4096 307.201 89.4859C308.316 89.7337 308.709 90.5804 308.75 91.8196C308.791 93.0587 308.544 93.8848 307.387 94.0913C306.809 94.1946 300.138 94.2359 299.126 94.3391L297.97 94.4837C297.97 94.4837 297.495 95.7435 297.082 97.0239C296.669 98.3043 296.297 99.688 296.297 99.688H296.916C297.354 99.6807 297.789 99.6323 298.217 99.5435C300.283 99.1924 303.277 98.738 305.756 98.3457C307.098 98.1391 307.821 98.0359 308.461 98.9239C309.058 99.5743 309.402 100.417 309.432 101.299C309.432 102.187 308.791 102.765 307.965 103.364C304.918 105.652 301.385 107.207 297.639 107.908C296.532 108.057 295.406 107.937 294.356 107.557C293.945 107.413 293.55 107.226 293.178 106.999C293.178 106.999 292.683 106.71 292.497 106.565V106.483ZM334.565 88.3707C332.704 90.1519 331.035 92.1248 329.588 94.2565C328.163 96.3217 326.841 98.5935 325.458 100.452C325.068 101.067 324.709 101.701 324.384 102.352C324.956 102.471 325.546 102.471 326.119 102.352C328.146 101.886 330.053 101 331.715 99.75C333.754 98.1244 335.205 95.8758 335.846 93.3478C336.275 91.7812 336.136 90.1131 335.453 88.6391C335.344 88.5081 335.189 88.4242 335.02 88.4049C334.85 88.3857 334.68 88.4326 334.545 88.5359L334.565 88.3707ZM320.935 109.023C320.935 109.023 320.398 110.613 320.006 111.873C319.303 113.938 317.796 119.845 317.424 121.641C316.908 124.326 315.359 131.368 315.359 131.513C315.273 131.699 315.128 131.852 314.946 131.947C314.326 132.298 314.078 132.174 313.314 131.782C312.315 131.296 311.44 130.59 310.753 129.716C309.287 127.816 309.638 124.223 309.927 122.116C310.689 115.95 312.315 109.923 314.76 104.211C314.78 104.169 314.79 104.123 314.79 104.077C314.79 104.03 314.78 103.984 314.76 103.942C313.895 102.092 313.437 100.078 313.417 98.0359C313.417 92.2946 316.722 86.6359 320.419 82.0717C320.687 81.7207 322.484 79.5522 323.331 79.5935C324.177 79.6348 324.301 80.6054 324.177 81.4109C323.43 84.1235 322.221 86.6873 320.604 88.9902C319.525 90.8086 318.705 92.7689 318.167 94.8141C317.985 95.5476 317.854 96.2929 317.775 97.0446C317.775 97.6641 317.94 98.4489 317.94 98.4489C317.94 98.4489 320.274 95.1652 321.823 93.162C322.649 92.0674 323.269 91.3239 323.888 90.5391C325.251 89.0315 326.676 87.5652 328.019 86.1402C329.21 84.8643 330.606 83.7964 332.149 82.9804C332.757 82.564 333.477 82.3411 334.214 82.3411C334.951 82.3411 335.671 82.564 336.279 82.9804C337.303 83.8361 338.134 84.8985 338.717 86.098C339.301 87.2975 339.625 88.6069 339.666 89.9402C339.933 92.9644 339.376 96.0044 338.056 98.738C336.554 101.636 334.3 104.075 331.529 105.801C328.67 107.813 325.277 108.927 321.782 109.002H320.79L320.935 109.023Z" fill="white"/>
<path fill-rule="evenodd" clip-rule="evenodd" d="M510.109 87.4206C510.109 87.4206 509.985 88.5359 509.799 89.775C509.61 91.0785 508.913 92.2546 507.861 93.0474C506.809 93.8402 505.487 94.1857 504.182 94.0087H492.1L490.737 104.81H481.113L483.261 87.4206H510.109ZM453.336 87.4206H474.484C477.499 87.4206 481.34 88.7217 480.576 94.1739C480.373 96.4102 479.993 98.6269 479.44 100.803C477.829 104.645 473.038 104.768 472.357 104.81H451.064L452.014 97.2717H470.746L471.159 94.0087H458.127C454.864 94.0087 452.551 91.9641 453.253 87.4206H453.336ZM451.395 87.4206L450.569 94.0087H434.439L434.026 97.2717H450.156L449.185 104.81H423.37L425.579 87.4206H451.395ZM512.071 87.4206H521.695L519.506 104.81H509.861L512.071 87.4206ZM530.348 87.4206H539.972L537.783 104.81H528.076L530.265 87.4206H530.348ZM427.087 76.413H452.84L451.828 84.3848H425.951L426.963 76.413H427.087ZM504.326 76.413C509.696 76.413 511.141 79.4902 510.708 82.8978C510.708 83.4967 510.542 84.1989 510.522 84.3641H453.646C453.646 84.3641 453.79 83.2695 453.935 82.0304C454.327 78.7674 457.033 76.5576 461.142 76.413H504.202H504.326ZM534.478 76.413C537.803 76.413 541.252 77.9413 540.571 83.1663C540.447 84.0956 540.426 84.3848 540.426 84.3848H512.36L513.372 76.413H534.478Z" fill="white"/>
<path fill-rule="evenodd" clip-rule="evenodd" d="M562.152 87.0283L563.061 79.9446H555.399L554.511 87.0283H547.282L546.415 94.0707H553.602L552.735 101.196H560.376L561.305 93.9881H568.513L569.401 86.9457L562.152 87.0283Z" fill="#F9B300"/>
<path d="M62.2663 105.78H70.3413V70.2174H62.2457V105.78H62.2663ZM48.037 95.6402C48.0545 96.2148 47.8495 96.774 47.4647 97.2011C47.0799 97.6283 46.5451 97.8903 45.9717 97.9326H41.1804C40.5906 97.9111 40.0329 97.6587 39.6273 97.23C39.2217 96.8012 39.0007 96.2303 39.012 95.6402V81.3076H30.9783V96.3424C30.9783 102.538 34.6957 105.739 40.1478 105.739H48.0576C53.0967 105.739 56.1533 101.877 56.1533 96.3424V81.3076H47.9957C47.9957 81.3076 48.037 95.1859 48.037 95.6402ZM93.4717 81.3076V95.6402C93.4842 96.2135 93.2775 96.7699 92.8937 97.1959C92.5099 97.6219 91.978 97.8854 91.4065 97.9326H86.7391C86.1677 97.8854 85.6358 97.6219 85.252 97.1959C84.8682 96.7699 84.6615 96.2135 84.6739 95.6402V81.3076H76.413V96.3424C76.413 102.538 80.1304 105.739 85.6033 105.739H93.4924C98.5315 105.739 101.588 101.877 101.588 96.3424V81.3076H93.4717ZM15.9228 81.3076H10.8217C9.88684 81.2583 8.95334 81.428 8.09565 81.8033V70.2174H0V105.739H8.05435V91.4478C8.04188 90.8746 8.24864 90.3182 8.63243 89.8922C9.01622 89.4662 9.54812 89.2027 10.1196 89.1554H14.9109C15.4823 89.2027 16.0142 89.4662 16.398 89.8922C16.7818 90.3182 16.9886 90.8746 16.9761 91.4478V105.78H25.0717V90.2913C25.0717 83.8065 20.9413 81.3076 15.9022 81.3076H15.9228Z" fill="#1CE783"/>
</g>
<defs>
<radialGradient id="paint0_radial_10_573" cx="0" cy="0" r="1" gradientUnits="userSpaceOnUse" gradientTransform="translate(361.721 64.8156) scale(176.185 176.185)">
<stop offset="0.06" stop-color="white"/>
<stop offset="0.08" stop-color="#CBFFFF"/>
<stop offset="0.1" stop-color="#96FFFF"/>
<stop offset="0.12" stop-color="#68FFFF"/>
<stop offset="0.14" stop-color="#43FFFF"/>
<stop offset="0.17" stop-color="#25FFFF"/>
<stop offset="0.19" stop-color="#11FFFF"/>
<stop offset="0.21" stop-color="#04FFFF"/>
<stop offset="0.23" stop-color="#00FFFF"/>
<stop offset="1" stop-color="#0000FF" stop-opacity="0"/>
</radialGradient>
<clipPath id="clip0_10_573">
<rect width="570" height="132.174" fill="white"/>
</clipPath>
</defs>
</svg>
